<?xml version="1.0" standalone="no"?>
<!DOCTYPE svg PUBLIC "-//W3C//DTD SVG 20010904//EN"
 "http://www.w3.org/TR/2001/REC-SVG-20010904/DTD/svg10.dtd">
<svg version="1.0" xmlns="http://www.w3.org/2000/svg"
 width="640.000000pt" height="640.000000pt" viewBox="0 0 640.000000 640.000000"
 preserveAspectRatio="xMidYMid meet">
<metadata>
Created by potrace 1.11, written by Peter Selinger 2001-2013
</metadata>
<g transform="translate(0.000000,640.000000) scale(0.100000,-0.100000)"
fill="#000000" stroke="none">
<path d="M2999 6396 c-2 -2 -42 -6 -89 -10 -106 -8 -133 -12 -300 -42 -518
-94 -995 -315 -1430 -663 -105 -85 -315 -289 -407 -396 -279 -325 -502 -728
-627 -1130 -28 -90 -80 -297 -92 -365 -4 -25 -8 -47 -9 -50 -1 -3 -5 -32 -9
-65 -5 -33 -10 -69 -12 -80 -25 -138 -25 -656 0 -791 2 -11 7 -44 11 -74 26
-206 147 -642 205 -742 5 -10 10 -22 10 -27 0 -14 93 -206 141 -291 23 -41 49
-88 58 -105 51 -94 218 -327 324 -450 98 -115 286 -297 423 -410 236 -194 603
-402 899 -509 129 -46 311 -101 374 -111 19 -3 37 -8 41 -10 7 -4 45 -12 100
-21 19 -3 60 -9 90 -14 80 -14 115 -18 215 -27 112 -10 476 -10 570 -1 39 4
88 9 110 12 34 3 163 24 255 41 14 3 61 14 105 25 44 12 90 23 101 25 63 14
314 102 411 146 164 73 423 212 431 231 2 4 8 8 13 8 8 0 128 77 139 90 3 3
39 30 80 60 41 30 77 57 80 60 3 3 32 27 65 55 65 53 273 259 344 340 222 254
435 605 550 905 18 47 36 92 40 100 7 14 71 213 76 235 1 5 7 28 13 50 6 22
13 51 16 65 3 14 8 36 11 50 6 24 38 205 49 280 27 172 28 663 2 795 -2 11 -7
47 -11 80 -21 193 -146 645 -205 747 -5 10 -10 22 -10 27 0 14 -93 206 -141
291 -23 41 -49 89 -58 105 -35 65 -208 316 -231 335 -3 3 -13 15 -21 27 -53
78 -307 340 -424 439 -377 318 -805 540 -1275 663 -64 16 -131 33 -150 36 -19
3 -57 10 -85 15 -27 5 -68 12 -90 14 -111 15 -142 19 -165 22 -31 6 -506 14
-511 10z"/>
</g>
</svg>
